<svg width="30" height="30" viewBox="0 0 66 66" fill="none" xmlns="http://www.w3.org/2000/svg">
<g filter="url(#filter0_d_0_16804)">
<rect width="30" height="30" rx="15" transform="matrix(1 0 0 -1 18 36)" fill="#DAE1FB"/>
</g>
<g filter="url(#filter1_b_0_16804)">
<path fill-rule="evenodd" clip-rule="evenodd" d="M33 6C41.2843 6 48 12.7157 48 21C48 29.2843 41.2843 36 33 36C24.7157 36 18 29.2843 18 21C18 12.7157 24.7157 6 33 6Z" fill="black" fill-opacity="0.01"/>
</g>
<path fill-rule="evenodd" clip-rule="evenodd" d="M33 6C41.2843 6 48 12.7157 48 21C48 29.2843 41.2843 36 33 36C24.7157 36 18 29.2843 18 21C18 12.7157 24.7157 6 33 6Z" fill="url(#paint0_linear_0_16804)"/>
<g opacity="0.9">
<path opacity="0.9" fill-rule="evenodd" clip-rule="evenodd" d="M27 12.6669L30.6755 18.995C30.9716 18.9106 31.2852 18.8431 31.6161 18.8094L28.0626 12.6669H27ZM30.3271 12.6669L33.9677 18.9612C33.6019 18.86 33.2187 18.7925 32.8181 18.7587L29.2819 12.6669H30.3271ZM32.4 19.7712C29.8219 19.7712 27.7142 21.8131 27.7142 24.3106C27.7142 26.8081 29.8219 28.85 32.4 28.85C34.9781 28.85 37.0858 26.8081 37.0858 24.3106C37.0858 21.7962 34.9781 19.7712 32.4 19.7712ZM32.4 27.8037C30.4142 27.8037 28.7942 26.2344 28.7942 24.3106C28.7942 22.3869 30.4142 20.8006 32.4 20.8006C34.3858 20.8006 36.0058 22.37 36.0058 24.2937C36.0058 26.2175 34.3858 27.8037 32.4 27.8037ZM33.7065 24.6987L34.8039 23.8212C34.9955 23.6525 34.891 23.3319 34.6471 23.315L33.2361 23.2137L32.6961 21.9481C32.6439 21.83 32.5394 21.7625 32.4174 21.7625C32.2955 21.7625 32.191 21.83 32.1387 21.9481L31.5987 23.2137L30.1877 23.315C29.9265 23.3319 29.8045 23.6525 30.0135 23.8212L31.111 24.6987L30.78 26.015C30.7277 26.2006 30.8845 26.3694 31.0587 26.3694C31.111 26.3694 31.1632 26.3525 31.2155 26.3187L32.4 25.5931L33.6019 26.3187C33.6542 26.3525 33.7065 26.3694 33.7587 26.3694C33.9329 26.3694 34.0897 26.2175 34.0374 26.015L33.7065 24.6987ZM36.7374 12.6669H37.8L34.7168 17.9994L34.1768 17.0712L36.7374 12.6669ZM33.5671 16.025L35.5181 12.6669H34.4729L33.0445 15.1306L33.5671 16.025Z" fill="white"/>
</g>
<defs>
<filter id="filter0_d_0_16804" x="0" y="0" width="30" height="30" filterUnits="userSpaceOnUse" color-interpolation-filters="sRGB">
<feFlood flood-opacity="0" result="BackgroundImageFix"/>
<feColorMatrix in="SourceAlpha" type="matrix" values="0 0 0 0 0 0 0 0 0 0 0 0 0 0 0 0 0 0 127 0" result="hardAlpha"/>
<feOffset dy="12"/>
<feGaussianBlur stdDeviation="9"/>
<feColorMatrix type="matrix" values="0 0 0 0 0.0431373 0 0 0 0 0.356863 0 0 0 0 0.862745 0 0 0 0.1 0"/>
<feBlend mode="normal" in2="BackgroundImageFix" result="effect1_dropShadow_0_16804"/>
<feBlend mode="normal" in="SourceGraphic" in2="effect1_dropShadow_0_16804" result="shape"/>
</filter>
<filter id="filter1_b_0_16804" x="-9.18282" y="-21.1828" width="84.3656" height="84.3656" filterUnits="userSpaceOnUse" color-interpolation-filters="sRGB">
<feFlood flood-opacity="0" result="BackgroundImageFix"/>
<feGaussianBlur in="BackgroundImage" stdDeviation="13.5914"/>
<feComposite in2="SourceAlpha" operator="in" result="effect1_backgroundBlur_0_16804"/>
<feBlend mode="normal" in="SourceGraphic" in2="effect1_backgroundBlur_0_16804" result="shape"/>
</filter>
<linearGradient id="paint0_linear_0_16804" x1="41.5" y1="33.5" x2="25" y2="9.5" gradientUnits="userSpaceOnUse">
<stop stop-color="#D10015"/>
<stop offset="1" stop-color="#FF4369"/>
</linearGradient>
</defs>
</svg>
